<svg width="1024" height="1024" viewBox="0 0 1024 1024" fill="none" xmlns="http://www.w3.org/2000/svg">
<path fill-rule="evenodd" clip-rule="evenodd" d="M0 296.421C0 408.975 62.7314 506.876 155.138 557.071C170.718 342.268 342.268 170.717 557.071 155.138C506.876 62.7314 408.975 0 296.421 0C132.712 0 0 132.712 0 296.421Z" fill="#0064FF"/>
<path d="M588.992 1024C829.241 1024 1024 829.241 1024 588.992C1024 348.744 829.241 153.985 588.992 153.985C578.257 153.985 567.612 154.374 557.071 155.138C579.884 197.137 592.842 245.266 592.842 296.421C592.842 460.13 460.13 592.842 296.421 592.842C245.266 592.842 197.137 579.884 155.138 557.071C154.374 567.612 153.985 578.257 153.985 588.992C153.985 829.241 348.744 1024 588.992 1024Z" fill="#002556"/>
<path d="M296.421 592.842C460.13 592.842 592.842 460.13 592.842 296.421C592.842 245.266 579.884 197.137 557.071 155.138C342.268 170.717 170.718 342.268 155.138 557.071C197.137 579.884 245.266 592.842 296.421 592.842Z" fill="#86B5FF"/>
</svg>
